<svg
  width="20"
  height="20"
  viewBox="0 0 100 100"
  xmlns="http://www.w3.org/2000/svg"
>
  <path
    d="M 50 0 C 22.4 0 0 22.4 0 50 C 0 77.6 22.4 100 50 100 C 77.6 100 100 77.6 100 50 C 100 22.4 77.6 0 50 0 Z M 50 90 C 27.7 90 10 72.3 10 50 C 10 27.7 27.7 10 50 10 C 72.3 10 90 27.7 90 50 C 90 72.3 72.3 90 50 90 Z"
    fill="#9955cc"
  />
  <path
    d="M 50 0 C 22.4 0 0 22.4 0 50 C 0 77.6 22.4 100 50 100 C 77.6 100 100 77.6 100 50 C 100 22.4 77.6 0 50 0 Z M 50 90 C 27.7 90 10 72.3 10 50 C 10 27.7 27.7 10 50 10 C 72.3 10 90 27.7 90 50 C 90 72.3 72.3 90 50 90 Z"
    fill="none"
    stroke="#000000"
    stroke-width="2"
  />
  <path
    d="M 50 10 C 27.7 10 10 27.7 10 50 C 10 72.3 27.7 90 50 90 C 72.3 90 90 72.3 90 50 C 90 27.7 72.3 10 50 10 Z M 50 80 C 32.4 80 20 67.6 20 50 C 20 32.4 32.4 20 50 20 C 67.6 20 80 32.4 80 50 C 80 67.6 67.6 80 50 80 Z"
    fill="#ffffff"
  />
  <path
    d="M 50 10 C 27.7 10 10 27.7 10 50 C 10 72.3 27.7 90 50 90 C 72.3 90 90 72.3 90 50 C 90 27.7 72.3 10 50 10 Z M 50 80 C 32.4 80 20 67.6 20 50 C 20 32.4 32.4 20 50 20 C 67.6 20 80 32.4 80 50 C 80 67.6 67.6 80 50 80 Z"
    fill="none"
    stroke="#000000"
    stroke-width="2"
  />
  <path
    d="M 50 20 C 32.4 20 20 32.4 20 50 C 20 67.6 32.4 80 50 80 C 67.6 80 80 67.6 80 50 C 80 32.4 67.6 20 50 20 Z M 50 70 C 36.7 70 26 59.3 26 46 C 26 32.7 36.7 22 50 22 C 63.3 22 74 32.7 74 46 C 74 59.3 63.3 70 50 70 Z"
    fill="#9955cc"
  />
  <path
    d="M 50 20 C 32.4 20 20 32.4 20 50 C 20 67.6 32.4 80 50 80 C 67.6 80 80 67.6 80 50 C 80 32.4 67.6 20 50 20 Z M 50 70 C 36.7 70 26 59.3 26 46 C 26 32.7 36.7 22 50 22 C 63.3 22 74 32.7 74 46 C 74 59.3 63.3 70 50 70 Z"
    fill="none"
    stroke="#000000"
    stroke-width="2"
  />
</svg>
